# xmcd
#
# Track frame offsets: 
#        150
#        21335
#        39587
#        54271
#        67389
#        89847
#        110276
#        123827
#        138401
#        154539
#
# Disc length: 2247 seconds
#
# Revision: 0
# Processed by: cddbd v1.5.2PL0 Copyright (c) Steve Scherf et al.
# Submitted via: ExactAudioCopy v0.99pb4
#
DISCID=8808c50a
DTITLE=Transit - Decent Man On A Desperate Moon
DYEAR=2008
DGENRE=Country
TTITLE0=Estrangeiro - New Man
TTITLE1=Bleed on me 
TTITLE2=You and me and then some
TTITLE3=The girl and the road 
TTITLE4=Miller song 
TTITLE5=Jokes aside 
TTITLE6=Damned if you don't 
TTITLE7=One for the sea - ad anima pt. 1  
TTITLE8=ad anima pt. 2
TTITLE9=ad anima pt. 3
EXTD=
EXTT0=
EXTT1=
EXTT2=
EXTT3=
EXTT4=
EXTT5=
EXTT6=
EXTT7=
EXTT8=
EXTT9=
PLAYORDER=
